:SAMPLES-PER-SECOND 30
:FULLY-SPECIFIED
:DEGREES
157
root  1.21994 36.3586 -24.3518 17.8705 -87.5638 -21.6787
RightUpLeg  -26.6925 -33.8872 -4.82093
RightLeg  57.5267 1.2748 1.63423
RightFoot  -6.00428 -0.637329 12.7974
RightToes  -1.33073e-015 0 -3.6325e-017
Spine  24.142 0.565764 -1.34637
Spine1  -11.4938 0.339549 -0.71723
HEad  -11.1365 5.50055 -3.89854
LeftShoulder1  -0.0890956 4.54387 -1.49275
LeftArm  -57.6063 -10.8738 -21.8009
LeftForeArm  66.5653 -77.5309 -109.166
LeftHand  0.451795 6.56779 40.9883
RightShoulder  0.0972001 -2.81753 5.97834
RightArm  -67.4295 -5.31403 22.8385
RightForeArm  53.1612 77.3525 106.772
RightHand  -2.63572 1.70101 -41.5733
LeftUpLeg  -18.9773 24.6856 7.22971
LeftLeg  50.7482 5.84923 8.09967
LeftFoot  -18.8806 -0.689728 -12.1609
LeftToes  -4.0021e-011 8.38769e-011 -3.99229e-011
158
root  0.877533 37.9734 -24.7004 30.4297 -87.5982 -33.0822
RightUpLeg  -21.827 -34.0313 -6.82601
RightLeg  47.3559 3.24359 3.64561
RightFoot  -4.70299 -0.923678 15.4609
RightToes  -1.33073e-015 0 -3.6325e-017
Spine  22.2674 0.718671 -0.861102
Spine1  -13.2551 0.54088 0.107782
HEad  -8.50997 6.29731 -4.07412
LeftShoulder1  0.361686 1.49866 -10.776
LeftArm  -53.4248 -3.15347 -22.8528
LeftForeArm  79.0314 -76.4057 -120.338
LeftHand  0.321006 6.2385 40.0474
RightShoulder  0.522632 -0.819915 12.6753
RightArm  -64.8594 -9.99786 23.975
RightForeArm  63.5239 76.8264 113.988
RightHand  -2.65558 1.94303 -40.6127
LeftUpLeg  -14.0457 24.5607 8.00279
LeftLeg  39.2339 7.55358 6.95622
LeftFoot  -13.2591 -0.138582 -13.214
LeftToes  -4.0021e-011 8.38769e-011 -3.99229e-011
159
root  0.58634 39.2502 -25.085 44.3834 -87.4511 -45.9012
RightUpLeg  -16.6488 -31.0974 -8.49353
RightLeg  35.538 -1.52178 -1.25281
RightFoot  -7.8625 -0.515051 14.754
RightToes  -1.33073e-015 0 -3.6325e-017
Spine  20.5908 0.961374 -0.195438
Spine1  -14.7747 0.845164 1.32664
HEad  -6.58562 6.64425 -4.01504
LeftShoulder1  0.971934 -0.604895 -17.2709
LeftArm  -51.5726 3.77289 -23.1569
LeftForeArm  83.5568 -75.5523 -125.629
LeftHand  0.17059 5.84122 38.801
RightShoulder  0.86155 0.208574 16.7692
RightArm  -63.3265 -14.9158 24.8733
RightForeArm  68.3371 76.467 117.548
RightHand  -2.74398 2.41368 -39.5144
LeftUpLeg  -9.85153 23.8509 8.91984
LeftLeg  28.9111 9.27382 5.85568
LeftFoot  -7.42608 0.549277 -14.6964
LeftToes  -4.0021e-011 8.38769e-011 -3.99229e-011
160
root  0.43093 39.9886 -25.4826 52.4494 -87.6656 -52.5535
RightUpLeg  -13.5539 -25.6464 -10.0136
RightLeg  26.1219 -10.807 -6.00689
RightFoot  -10.1557 -0.176867 10.6735
RightToes  -1.33073e-015 0 -3.6325e-017
Spine  18.3546 1.1277 0.293863
Spine1  -14.7666 1.0718 1.66337
HEad  -6.09872 6.61308 -3.80875
LeftShoulder1  1.09282 -0.867064 -18.4289
LeftArm  -51.2276 7.15155 -24.4114
LeftForeArm  85.0021 -74.9498 -128.517
LeftHand  0.031202 5.44567 37.7246
RightShoulder  0.85056 0.10897 16.9839
RightArm  -63.2487 -17.7684 26.7376
RightForeArm  71.872 75.9796 121.22
RightHand  -2.57619 2.20776 -38.1954
LeftUpLeg  -7.73036 23.0384 9.03445
LeftLeg  21.6918 10.8182 5.01313
LeftFoot  -2.73569 1.19187 -15.5994
LeftToes  -4.0021e-011 8.38769e-011 -3.99229e-011
161
root  0.433615 40.1849 -25.9081 49.1618 -88.0164 -47.6718
RightUpLeg  -12.567 -20.9699 -11.6996
RightLeg  20.6368 -16.0434 -6.82667
RightFoot  -11.4731 -0.0654112 8.34426
RightToes  -1.33073e-015 0 -3.6325e-017
Spine  16.2633 1.06066 0.556498
Spine1  -13.9741 1.04996 1.19383
HEad  -6.90175 6.1881 -3.47722
LeftShoulder1  0.722454 0.218343 -14.996
LeftArm  -52.1119 6.2649 -25.5013
LeftForeArm  85.8486 -74.6934 -129.701
LeftHand  -0.170558 4.82297 36.1057
RightShoulder  0.614672 -0.596828 14.3561
RightArm  -64.7937 -17.5928 27.3617
RightForeArm  73.6785 75.7398 122.874
RightHand  -2.35101 2.12931 -35.4429
LeftUpLeg  -7.94634 22.4481 8.4644
LeftLeg  18.3342 11.5735 4.48704
LeftFoot  -0.699876 1.44318 -15.3763
LeftToes  -4.0021e-011 8.38769e-011 -3.99229e-011
162
root  0.587876 39.8552 -26.402 32.2877 -88.068 -29.4094
RightUpLeg  -13.1431 -19.9115 -13.0523
RightLeg  19.0806 -15.4492 -6.03736
RightFoot  -13.6704 0.114639 9.90494
RightToes  -1.33073e-015 0 -3.6325e-017
Spine  16.1846 0.816347 0.581198
Spine1  -14.7491 0.848735 0.532533
HEad  -7.88087 5.5077 -3.18278
LeftShoulder1  0.309135 1.68731 -9.65885
LeftArm  -54.1502 2.24848 -24.1467
LeftForeArm  82.8803 -75.2527 -126.861
LeftHand  -0.416987 3.95121 33.3709
RightShoulder  0.344667 -1.55515 10.5566
RightArm  -67.0418 -15.2842 24.6978
RightForeArm  69.2088 76.3209 118.658
RightHand  -2.25631 2.52044 -32.5206
LeftUpLeg  -10.6032 22.5774 7.88815
LeftLeg  19.9898 10.4068 4.46875
LeftFoot  -2.43196 1.16139 -14.628
LeftToes  -4.0021e-011 8.38769e-011 -3.99229e-011
163
root  0.946721 38.9933 -26.9255 23.7084 -88.0926 -20.2371
RightUpLeg  -15.9155 -22.114 -13.5489
RightLeg  22.9167 -12.7223 -6.03346
RightFoot  -15.8168 0.392793 12.8119
RightToes  -1.33073e-015 0 -3.6325e-017
Spine  19.2835 0.621482 0.961569
Spine1  -17.8602 0.757688 -0.376014
HEad  -8.93259 4.84215 -3.27574
LeftShoulder1  0.0578197 3.00796 -3.70436
LeftArm  -57.306 -2.7787 -20.2671
LeftForeArm  69.9501 -76.7218 -116.221
LeftHand  -0.508122 3.547 31.6256
RightShoulder  0.090859 -2.84727 5.90276
RightArm  -69.1172 -11.9755 20.0369
RightForeArm  54.3538 77.3597 106.799
RightHand  -2.26873 2.58407 -32.4355
LeftUpLeg  -15.3933 23.0956 8.10435
LeftLeg  27.4208 8.02976 4.82267
LeftFoot  -7.15763 0.562798 -14.22
LeftToes  -4.0021e-011 8.38769e-011 -3.99229e-011
164
root  1.54943 37.5809 -27.402 51.6677 -88.607 -48.7627
RightUpLeg  -21.5249 -25.1129 -13.2568
RightLeg  32.4688 -9.08488 -6.37165
RightFoot  -16.1999 0.520212 14.8554
RightToes  -1.33073e-015 0 -3.6325e-017
Spine  24.466 0.67021 2.01847
Spine1  -20.9937 1.02788 -1.52751
HEad  -11.4229 4.32614 -3.94881
LeftShoulder1  -0.0466996 4.40786 3.3424
LeftArm  -61.5347 -6.53068 -15.7744
LeftForeArm  42.4133 -77.9008 -92.6542
LeftHand  -0.341346 4.21209 33.6705
RightShoulder  -0.0747261 -4.38915 0.14444
RightArm  -71.3557 -8.33731 15.4057
RightForeArm  26.1231 77.6592 84.0854
RightHand  -2.40265 2.16023 -36.0042
LeftUpLeg  -21.1539 24.3623 9.48688
LeftLeg  38.9343 5.34687 4.98455
LeftFoot  -12.5841 -0.0832441 -14.3854
LeftToes  -4.0021e-011 8.38769e-011 -3.99229e-011
165
root  2.26607 35.7455 -27.8786 117.424 -88.5685 -115.631
RightUpLeg  -28.8985 -27.3644 -12.5956
RightLeg  44.3668 -4.63767 -5.10418
RightFoot  -14.8458 0.389184 15.9338
RightToes  -1.33073e-015 0 -3.6325e-017
Spine  29.0335 0.977845 2.4439
Spine1  -21.5319 1.54391 -2.27775
HEad  -16.2568 4.02851 -5.01536
LeftShoulder1  0.0324808 6.14081 10.9726
LeftArm  -66.3435 -7.60701 -11.4601
LeftForeArm  5.21097 -75.746 -58.5948
LeftHand  0.104805 5.65117 38.1961
RightShoulder  -0.0744138 -5.52472 -5.53844
RightArm  -74.663 -4.92703 10.0444
RightForeArm  -10.0284 74.4412 52.6422
RightHand  -2.58383 1.82666 -40.1849
LeftUpLeg  -26.7881 26.3384 11.4638
LeftLeg  51.0746 3.12163 4.62026
LeftFoot  -17.138 -0.645576 -14.7193
LeftToes  -4.0021e-011 8.38769e-011 -3.99229e-011
166
root  2.80415 33.994 -28.414 146.246 -87.8589 -145.016
RightUpLeg  -35.6592 -29.2726 -11.8485
RightLeg  54.3106 -1.25353 -2.33191
RightFoot  -14.0379 0.293355 16.4065
RightToes  -1.33073e-015 0 -3.6325e-017
Spine  31.1807 1.25839 1.72236
Spine1  -19.3545 1.82026 -2.21587
HEad  -22.1695 4.09598 -6.17362
LeftShoulder1  0.269136 7.95248 16.6428
LeftArm  -70.3254 -6.63733 -7.12829
LeftForeArm  -19.465 -69.7572 -35.9209
LeftHand  0.680389 7.18881 41.0536
RightShoulder  -0.00995839 -5.93742 -9.10748
RightArm  -78.2129 -2.81652 3.77576
RightForeArm  -32.6317 67.3225 31.8179
RightHand  -2.69492 1.71741 -42.3566
LeftUpLeg  -31.5073 28.1837 12.9974
LeftLeg  60.3582 1.80315 4.06588
LeftFoot  -20.5937 -1.08026 -14.8062
LeftToes  -4.0021e-011 8.38769e-011 -3.99229e-011
167
root  2.94995 33.013 -28.9563 158.924 -87.945 -157.664
RightUpLeg  -39.2257 -30.8919 -11.4204
RightLeg  59.7438 0.0297638 -0.490474
RightFoot  -15.0804 0.434901 16.3881
RightToes  -1.33073e-015 0 -3.6325e-017
Spine  31.0852 1.17782 0.86956
Spine1  -16.3637 1.59458 -1.94702
HEad  -26.2407 4.49704 -7.2439
LeftShoulder1  0.442742 9.21242 18.5648
LeftArm  -72.3205 -5.55976 -5.02205
LeftForeArm  -26.5283 -66.5838 -30.1002
LeftHand  0.989135 8.00335 41.211
RightShoulder  0.00496838 -6.12251 -9.78966
RightArm  -79.2452 -2.96862 0.852951
RightForeArm  -37.7502 63.7985 26.6671
RightHand  -2.67042 1.68389 -42.1661
LeftUpLeg  -33.8242 29.0306 13.7424
LeftLeg  64.5112 1.24983 3.59739
LeftFoot  -22.5889 -1.36561 -15.144
LeftToes  -4.0021e-011 8.38769e-011 -3.99229e-011
168
root  2.72988 33.0713 -29.4924 174.321 -88.3371 -173.328
RightUpLeg  -38.5385 -31.1649 -11.5599
RightLeg  60.3921 -0.113979 -0.724205
RightFoot  -16.1942 0.574421 16.071
RightToes  -1.33073e-015 0 -3.6325e-017
Spine  30.2157 0.822121 0.704302
Spine1  -14.8491 1.18561 -2.32036
HEad  -26.1266 5.09155 -7.87392
LeftShoulder1  0.361078 9.17311 16.9023
LeftArm  -71.4676 -5.20227 -8.17012
LeftForeArm  -14.8433 -71.1408 -40.2731
LeftHand  0.95387 7.91381 41.1346
RightShoulder  -0.04356 -6.06139 -7.63439
RightArm  -76.4984 -5.30392 4.94561
RightForeArm  -26.3626 69.3555 36.8144
RightHand  -2.47341 1.728 -39.0515
LeftUpLeg  -32.5404 28.3909 14.4449
LeftLeg  63.4675 1.21959 3.37286
LeftFoot  -21.9618 -1.42486 -16.7146
LeftToes  -4.0021e-011 8.38769e-011 -3.99229e-011
169
root  2.33474 34.0228 -30.0658 -165.524 -88.4692 165.763
RightUpLeg  -34.5702 -29.7407 -11.8199
RightLeg  56.5651 -1.17107 -2.32315
RightFoot  -15.0513 0.400395 15.3963
RightToes  -1.33073e-015 0 -3.6325e-017
Spine  29.4318 0.591078 0.446116
Spine1  -15.6769 0.883421 -2.95003
HEad  -22.171 6.10722 -7.75564
LeftShoulder1  0.0720017 7.59146 11.4275
LeftArm  -66.4812 -4.4235 -14.8079
LeftForeArm  27.0355 -77.5795 -75.5856
LeftHand  0.802453 7.47583 41.6503
RightShoulder  -0.08593 -4.9797 -2.38806
RightArm  -71.6675 -8.66182 13.2433
RightForeArm  13.1938 77.1234 72.1956
RightHand  -2.31422 1.98251 -35.591
LeftUpLeg  -28.3918 26.3331 15.1772
LeftLeg  58.1004 2.3619 4.59635
LeftFoot  -17.6151 -0.92114 -18.6752
LeftToes  -4.0021e-011 8.38769e-011 -3.99229e-011
170
root  1.86492 35.5353 -30.6562 -146.254 -88.2363 146.221
RightUpLeg  -29.1648 -27.6913 -11.5633
RightLeg  48.6918 -3.09207 -4.08176
RightFoot  -11.8565 -0.0148539 14.3953
RightToes  -1.33073e-015 0 -3.6325e-017
Spine  28.0394 0.663186 -0.807301
Spine1  -17.2365 0.624965 -2.37204
HEad  -16.9677 7.77675 -7.15157
LeftShoulder1  -0.0928672 5.01539 1.88553
LeftArm  -59.146 -1.27539 -20.171
LeftForeArm  74.9367 -77.3402 -113.87
LeftHand  0.584321 6.9013 41.5299
RightShoulder  0.10374 -2.77904 5.59735
RightArm  -66.538 -11.7036 19.9486
RightForeArm  56.6287 77.2688 109.615
RightHand  -2.41532 2.14462 -36.2845
LeftUpLeg  -23.6778 23.7037 14.9359
LeftLeg  50.037 6.10331 8.10027
LeftFoot  -10.3984 0.188302 -18.2562
LeftToes  -4.0021e-011 8.38769e-011 -3.99229e-011
